<svg xmlns="http://www.w3.org/2000/svg" width="520" height="520" viewBox="0 0 520 520">
  <defs>
    <radialGradient id="g" cx="40%" cy="20%" r="80%">
      <stop offset="0" stop-color="#b7fff0" stop-opacity="0.22"/>
      <stop offset="0.55" stop-color="#ffbee9" stop-opacity="0.14"/>
      <stop offset="1" stop-color="#000000" stop-opacity="0"/>
    </radialGradient>
    <linearGradient id="robe" x1="0" y1="0" x2="1" y2="1">
      <stop offset="0" stop-color="#ffffff" stop-opacity="0.18"/>
      <stop offset="1" stop-color="#ffffff" stop-opacity="0.06"/>
    </linearGradient>
  </defs>

  <rect width="520" height="520" rx="42" fill="rgba(255,255,255,0.04)" stroke="rgba(255,255,255,0.12)"/>
  <rect width="520" height="520" rx="42" fill="url(#g)"/>

  <circle cx="260" cy="210" r="140" fill="rgba(255,218,158,0.08)"/>
  <circle cx="260" cy="210" r="110" fill="rgba(255,186,232,0.08)"/>
  <circle cx="260" cy="210" r="85" fill="rgba(166,255,229,0.08)"/>

  <circle cx="260" cy="190" r="44" fill="rgba(255,255,255,0.16)" stroke="rgba(255,255,255,0.18)"/>

  <path d="M170 220
           C175 140, 220 110, 260 110
           C300 110, 345 140, 350 220
           C320 210, 300 210, 260 210
           C220 210, 200 210, 170 220 Z"
        fill="rgba(255,255,255,0.10)"/>

  <path d="M145 415
           C160 305, 215 250, 260 250
           C305 250, 360 305, 375 415
           C330 440, 295 452, 260 452
           C225 452, 190 440, 145 415 Z"
        fill="url(#robe)" stroke="rgba(255,255,255,0.14)"/>

  <circle cx="205" cy="360" r="18" fill="rgba(255,255,255,0.14)"/>
  <circle cx="315" cy="360" r="18" fill="rgba(255,255,255,0.14)"/>

  <g fill="rgba(255,255,255,0.55)">
    <circle cx="140" cy="120" r="2"/>
    <circle cx="390" cy="130" r="2"/>
    <circle cx="410" cy="250" r="2"/>
    <circle cx="120" cy="250" r="2"/>
    <circle cx="180" cy="85" r="2"/>
    <circle cx="340" cy="90" r="2"/>
  </g>

  <text x="260" y="490" text-anchor="middle" font-family="Georgia, serif" font-size="18" fill="rgba(255,255,255,0.70)">
    gentle guidance
  </text>
</svg>
